HIERARCHY
ROOT pelvis
{
  OFFSET 0 100 0
  CHANNELS 6 Xposition Yposition Zposition Zrotation Xrotation Yrotation
  JOINT pelvis_right_femur
  {
    OFFSET -10.78128 -3.44521 -0.5502486
    CHANNELS 3 Zrotation Xrotation Yrotation
    JOINT right_femur_tibia
    {
      OFFSET -0.8047443 -44.0398 -0.1307829
      CHANNELS 3 Zrotation Xrotation Yrotation
      JOINT right_tibia_foot
      {
        OFFSET 3.006224 -47.83518 -5
        CHANNELS 3 Zrotation Xrotation Yrotation
        End Site
        {
          OFFSET 0 -5 15
        }
      }
    }
  }
  JOINT pelvis_left_femur
  {
    OFFSET 10.78128 -3.44521 -0.5502486
    CHANNELS 3 Zrotation Xrotation Yrotation
    JOINT left_femur_tibia
    {
      OFFSET 0.8047443 -44.0398 -0.1307829
      CHANNELS 3 Zrotation Xrotation Yrotation
      JOINT left_tibia_foot
      {
        OFFSET -4.370144 -48.10324 -4.275266
        CHANNELS 3 Zrotation Xrotation Yrotation
        End Site
        {
          OFFSET 0 -5 15
        }
      }
    }
  }
  JOINT pelvis_spine1
  {
    OFFSET 0 6.468898 -3.129235
    CHANNELS 3 Zrotation Xrotation Yrotation
    JOINT spine1
    {
      OFFSET 0 23.15396 4.99043
      CHANNELS 3 Zrotation Xrotation Yrotation
      JOINT spine2
      {
        OFFSET 0 20.79997 -5.064912
        CHANNELS 3 Zrotation Xrotation Yrotation
        JOINT neck
        {
          OFFSET 0 14.38658 9.616178
          CHANNELS 3 Zrotation Xrotation Yrotation
          End Site
          {
            OFFSET 0 20 0
          }
        }
      }
      JOINT right_manubrium
      {
        OFFSET -5.722621 16.35077 3.967754
        CHANNELS 3 Zrotation Xrotation Yrotation
        JOINT right_clavicle
        {
          OFFSET -13.16364 1.694482 -4.693211
          CHANNELS 3 Zrotation Xrotation Yrotation
          JOINT right_humerus
          {
            OFFSET -28.5034 -0.3100689 -2.792744
            CHANNELS 3 Zrotation Xrotation Yrotation
            JOINT right_radius
            {
              OFFSET -25.15693 0.02248979 -1.271978
              CHANNELS 3 Zrotation Xrotation Yrotation
              End Site
              {
                OFFSET -15 0 0
              }
            }
          }
        }
      }
      JOINT left_manubrium
      {
        OFFSET 5.722621 16.35077 3.967754
        CHANNELS 3 Zrotation Xrotation Yrotation
        JOINT left_clavicle
        {
          OFFSET 13.16364 1.694482 -4.693211
          CHANNELS 3 Zrotation Xrotation Yrotation
          JOINT left_humerus
          {
            OFFSET 29.39168 -1.063119 -2.237045
            CHANNELS 3 Zrotation Xrotation Yrotation
            JOINT left_radius
            {
              OFFSET 24.59957 -0.9528479 0.9047498
              CHANNELS 3 Zrotation Xrotation Yrotation
              End Site
              {
                OFFSET 15 -0 -0
              }
            }
          }
        }
      }
    }
  }
}
MOTION
Frames: 21
Frame Time: 0.0416666666667
0 103.5113 0 3.081778 -1.708283 0.2350456 0.4729297 -9.904807 7.424707 -0 35.28077 -0 -4.178387 -19.58852 -3.451076 -8.476317 11.40066 -23.39005 -0 4.238798 -0 8.022499 -16.08444 25.64486 -3.233607 -4.632519 5.746294 2.34482 11.28506 -7.112948 2.4871 22.43359 4.239773 1.828326 -24.89664 9.40118 6.311966 -20.17237 10.05889 86.2923 34.49557 -21.07982 -0 0 15.66488 -5.59351 7.651987 1.700259 6.27439 -20.72832 -3.334041 -96.47349 27.09502 25.25956 0 0 -14.02257 11.32399 18.33806 3.201453
0.2572946 103.3929 1.261379 2.065901 -1.168244 0.2854649 2.087074 -13.3726 8.583198 -0 36.72811 -0 -4.248281 -18.69594 -3.840057 -7.775255 11.72204 -23.77966 -0 4.055223 -0 7.11734 -17.64956 26.23151 -3.111529 -4.468972 5.693894 2.385085 11.16239 -7.173233 2.463064 22.29308 4.325527 1.905367 -25.04074 9.386388 6.252577 -20.0704 10.07278 86.31063 34.45311 -21.07975 -0 0 15.58326 -5.623122 7.707199 1.783227 6.342223 -20.77288 -3.166227 -96.32023 27.06625 25.04237 0 0 -14.28724 11.23001 18.23871 3.249669
0.4774079 101.9856 5.44678 0.8747471 -3.138733 0.4363059 1.597866 -25.29617 -3.996533 -0 14.93253 -0 -10.41361 -1.153302 0.6798752 -6.312172 14.62127 -13.68662 -0 8.570397 -0 4.885806 -20.42319 18.1644 -1.269728 -1.70701 5.307902 1.974065 10.35809 -6.5605 1.674644 21.7188 5.529493 2.743052 -23.64385 8.361248 5.906233 -17.78504 10.78165 85.56349 35.81026 -17.79737 -0 0 11.74858 -10.20475 10.65333 5.709369 5.806207 -20.15639 -1.828136 -92.74913 23.11232 20.89081 0 0 -13.77917 10.46204 14.54486 2.026146
0.7196858 101.0758 8.980122 0.4240839 -0.5538934 0.5419048 3.57137 -27.92282 0.9698471 -0 19.09312 -0 -8.497507 -5.036404 -0.5626075 -6.480528 14.16794 -16.61407 -0 6.686586 -0 7.231037 -20.83326 21.07136 -1.876254 -2.761171 4.780057 2.646512 9.809348 -7.514213 2.094922 20.98388 5.538379 2.88329 -25.27279 9.080653 5.933805 -18.37635 10.4311 85.39659 34.17076 -19.27615 -0 0 14.03782 -8.302822 9.886867 3.951413 7.242509 -20.92228 -0.7875382 -93.56669 23.60236 20.72246 0 0 -14.0974 11.88454 17.12777 0.735643
0.9326214 99.95471 13.08023 0.1655519 0.1830074 0.7900141 3.971005 -30.91166 0.4087857 -0 14.78985 -0 -8.313191 -2.52697 -0.4822158 -6.370001 15.07539 -15.12237 -0 8.128703 -0 7.084395 -21.32968 19.91384 -2.094653 -3.038476 4.413031 2.865414 9.412159 -7.886251 2.135206 20.64197 5.810364 3.087205 -25.53906 9.2711 5.955505 -18.36405 10.44992 84.90616 33.43465 -19.09098 -0 0 14.9208 -8.488406 10.0755 3.924906 7.929278 -21.12745 0.118889 -93.38654 22.79638 19.86126 0 0 -13.45535 12.59392 18.00829 -0.4925066
1.205094 99.07818 16.90523 -0.4752052 2.304735 1.156631 6.125978 -33.3711 4.184998 -0 16.6919 -0 -7.041714 -4.107815 -1.10775 -6.321904 14.37668 -16.86707 -0 7.585533 -0 7.673293 -22.00748 21.41933 -1.990932 -2.889941 4.219511 2.874631 9.255926 -7.915019 2.014692 20.56669 6.092572 3.22781 -25.28017 9.232482 6.003961 -18.06953 10.63098 84.67963 33.46996 -18.60574 -0 0 14.6619 -9.136411 10.54523 4.429334 7.998057 -21.04375 0.5228792 -92.94602 21.89602 19.11892 0 0 -12.8915 12.73989 17.85278 -1.177285
1.499774 98.25278 20.9704 -1.018634 3.565207 1.701528 7.436201 -35.2121 5.550392 -0 15.72047 -0 -6.674875 -3.471693 -1.17196 -6.117092 14.42727 -16.9888 -0 8.817445 -0 6.906818 -22.28837 20.85682 -1.876598 -2.729324 4.118068 2.799988 9.235513 -7.81816 1.923176 20.63893 6.250326 3.291645 -24.83775 9.147465 6.075369 -17.79775 10.79193 84.52945 33.68415 -18.10033 -0 0 14.23194 -9.720018 10.9704 4.898983 7.892064 -20.86433 0.6582719 -92.58232 21.18976 18.59541 0 0 -12.32174 12.7766 17.60487 -1.631894
1.86827 97.63848 25.03218 -1.747988 4.889062 2.441225 9.173685 -35.9951 7.741691 -0 17.17421 -0 -6.475785 -3.997231 -1.114433 -5.912978 13.62603 -18.05144 -0 9.676274 -0 6.126236 -22.33907 20.90685 -1.736004 -2.530025 4.082536 2.702119 9.283572 -7.667752 1.86394 20.75373 6.31321 3.316211 -24.4045 9.040343 6.119333 -17.54896 10.89946 84.49216 33.95334 -17.72198 -0 0 13.68758 -10.14119 11.2954 5.25716 7.69695 -20.67104 0.5901464 -92.2958 20.7623 18.24911 0 0 -11.99963 12.67395 17.26703 -1.780456
2.296889 97.17552 29.40604 -2.438237 5.582084 3.316219 10.16512 -36.07465 8.39923 -0 17.57912 -0 -6.87541 -3.714932 -0.9153433 -5.551834 13.50362 -18.0647 -0 11.81994 -0 4.785769 -21.51608 19.62176 -1.645297 -2.391214 4.073966 2.591921 9.350625 -7.507668 1.844366 20.89594 6.310563 3.312502 -23.9888 8.948073 6.164409 -17.3707 10.95993 84.43966 34.17732 -17.37431 -0 0 13.27779 -10.46569 11.53871 5.517228 7.522559 -20.48529 0.4808946 -92.10094 20.47375 18.0176 0 0 -11.66599 12.60938 17.05622 -1.884611
2.808762 96.88405 34.06802 -3.107324 5.98976 4.255153 10.89629 -35.53735 8.783325 -0 18.4814 -0 -7.449581 -3.80572 -0.7552402 -5.20618 13.29294 -17.91424 -0 14.23963 -0 3.752654 -20.09169 18.35859 -1.597031 -2.308533 4.084545 2.485952 9.418559 -7.359721 1.851613 21.03674 6.268632 3.292372 -23.64035 8.878014 6.206118 -17.26148 10.98236 84.37708 34.34624 -17.08135 -0 0 13.01201 -10.69755 11.70175 5.688244 7.386133 -20.32882 0.3655303 -91.99102 20.30348 17.89114 0 0 -11.35348 12.58575 16.9563 -1.95744
3.387946 96.74269 39.178 -3.638379 5.955869 5.130373 11.09199 -34.53668 8.335867 -0 18.42453 -0 -8.125605 -3.56221 -0.7491551 -4.765657 13.52579 -16.94236 -0 18.01268 -0 2.332686 -18.02704 16.35406 -1.600771 -2.298136 4.10164 2.379374 9.481812 -7.225315 1.880925 21.18169 6.20335 3.260188 -23.33001 8.834444 6.260399 -17.21882 10.98177 84.27238 34.46568 -16.79457 -0 0 12.91528 -10.88494 11.8135 5.802685 7.298846 -20.19392 0.2792787 -91.95187 20.18055 17.83754 0 0 -10.96755 12.6455 16.99847 -2.082676
4.024938 96.78185 44.72463 -4.01381 5.620291 5.844489 11.05469 -33.01 7.684496 -0 18.07851 -0 -8.668575 -3.376345 -0.8819118 -4.323454 13.64863 -15.64615 -0 22.73696 -0 0.7199628 -15.66851 14.29357 -1.640863 -2.339328 4.126266 2.267531 9.546585 -7.094814 1.926506 21.33418 6.118144 3.218282 -23.03917 8.807401 6.326471 -17.22419 10.96412 84.13701 34.55848 -16.50755 -0 0 12.93313 -11.05067 11.89152 5.88245 7.242955 -20.07324 0.2053703 -91.96307 20.08986 17.83982 0 0 -10.52266 12.76875 17.13838 -2.245913
4.685258 97.06342 50.73254 -4.14782 4.797178 6.249257 10.77223 -30.51146 6.84382 -0 17.27437 -0 -8.884448 -3.104976 -1.19905 -3.820815 13.47388 -13.85811 -0 29.41185 -0 -1.53335 -12.83043 12.06806 -1.709779 -2.419892 4.157735 2.138427 9.620958 -6.952396 1.987061 21.50785 6.01212 3.167614 -22.7277 8.787389 6.408963 -17.26156 10.93377 83.96797 34.64489 -16.19172 -0 0 13.02696 -11.22953 11.95758 5.952908 7.203487 -19.95212 0.128304 -92.00593 20.00745 17.87581 0 0 -9.993579 12.94941 17.35465 -2.452537
5.329333 97.68093 57.09164 -3.900483 3.33605 6.200699 10.28098 -26.58797 6.161038 -0 16.47735 -0 -8.513215 -3.092104 -1.667789 -3.354691 12.22045 -11.85105 -0 38.09447 -0 -3.972104 -9.60393 10.40362 -1.801347 -2.53035 4.199931 1.984878 9.712412 -6.787226 2.062474 21.7095 5.881053 3.108266 -22.37944 8.767447 6.507885 -17.32355 10.88929 83.77028 34.73733 -15.84244 -0 0 13.16855 -11.43598 12.01786 6.023453 7.169839 -19.82609 0.02807514 -92.07403 19.9342 17.94295 0 0 -9.386681 13.17781 17.62553 -2.687621
5.914239 98.69761 63.5739 -3.040657 0.9645261 5.623025 9.361556 -20.55549 5.737798 -0 15.71221 -0 -7.320599 -3.657631 -2.213023 -3.017297 8.790552 -9.834158 -0 48.7265 -0 -6.090727 -6.382592 9.962793 -1.908259 -2.660079 4.25939 1.79879 9.829651 -6.58575 2.153023 21.94664 5.719302 3.040063 -21.98043 8.740768 6.622216 -17.40354 10.82703 83.54991 34.85 -15.45727 -0 0 13.32645 -11.68148 12.07599 6.100295 7.129457 -19.6907 -0.1212401 -92.16554 19.87684 18.04623 0 0 -8.712435 13.44217 17.92548 -2.92931
6.421228 100.0164 69.89141 -1.568535 -1.92294 4.789631 7.813157 -12.84696 5.485528 -0 14.76592 -0 -5.656946 -5.055332 -2.584768 -2.903605 2.710558 -8.336576 -0 58.18763 -0 -7.059126 -4.500994 11.04639 -2.0002 -2.767576 4.349826 1.57423 9.981289 -6.325545 2.252588 22.22274 5.525839 2.964758 -21.52629 8.695784 6.738707 -17.47741 10.74315 83.33272 35.0143 -15.04397 -0 0 13.40964 -11.96423 12.13666 6.189347 7.046913 -19.53384 -0.3662885 -92.27584 19.85821 18.20002 0 0 -8.030937 13.68606 18.17131 -3.104387
6.86346 101.332 75.90299 0.006792484 -4.089601 4.130598 5.893127 -5.25698 5.106747 -0 13.54928 -0 -4.51759 -7.220625 -2.506092 -2.862873 -4.686787 -7.532796 -0 62.03117 -0 -6.90534 -4.457467 12.8101 -2.018355 -2.768637 4.489375 1.297825 10.1695 -5.963558 2.343751 22.54664 5.316493 2.889674 -20.99586 8.616351 6.832679 -17.49297 10.64083 83.14858 35.28935 -14.5735 -0 0 13.26143 -12.2961 12.21951 6.32205 6.853296 -19.31543 -0.7637293 -92.39005 19.89392 18.41858 0 0 -7.405413 13.79311 18.21576 -3.096275
7.287449 102.3114 81.62215 1.038686 -4.721173 3.701866 4.38882 0.4469728 4.399021 -0 12.00241 -0 -4.311779 -9.612928 -1.846226 -2.492744 -11.60575 -6.856412 -0 59.43569 -0 -6.39204 -5.086068 14.19131 -1.965908 -2.659658 4.66291 0.9742288 10.36279 -5.514029 2.408091 22.90395 5.137513 2.832437 -20.3991 8.514378 6.897218 -17.44711 10.53809 82.97196 35.65287 -14.00234 -0 0 12.93 -12.70968 12.32824 6.535208 6.562695 -19.03051 -1.25362 -92.49926 19.94199 18.6845 0 0 -6.797548 13.7392 18.05979 -2.923747
7.74084 102.7515 87.13916 1.387662 -4.529386 3.340241 3.797057 4.262751 3.687982 -0 10.35991 -0 -4.301785 -11.56003 -1.017384 -1.519673 -17.19467 -5.673811 -0 53.41399 -0 -6.001113 -5.547605 15.16237 -1.963133 -2.616444 4.803233 0.6505644 10.52535 -5.095701 2.466078 23.24365 5.008139 2.804961 -19.81409 8.440976 6.981358 -17.4358 10.44621 82.73438 35.95327 -13.39948 -0 0 12.76354 -13.1955 12.43227 6.779019 6.347829 -18.7778 -1.665031 -92.6197 19.91503 18.92259 0 0 -6.078907 13.76665 18.01319 -2.869631
8.227734 102.6059 92.58218 1.315544 -4.752753 2.899081 3.88934 7.072217 3.57218 -0 9.645766 -0 -3.443431 -12.92024 -0.8005664 -0.2512388 -20.67147 -4.205808 -0 46.53027 -0 -6.10617 -5.884891 16.52956 -2.071999 -2.741728 4.878618 0.3475066 10.67547 -4.762319 2.546708 23.55052 4.899102 2.805067 -19.26492 8.410742 7.130948 -17.50557 10.35913 82.43274 36.13647 -12.86361 -0 0 12.88499 -13.72971 12.52242 6.993228 6.295019 -18.62625 -1.973346 -92.75787 19.78531 19.08245 0 0 -5.218374 14.04974 18.24527 -3.092425
8.749303 101.9448 98.06319 1.086447 -5.349725 2.326724 4.080804 9.738678 3.671821 -0 9.680004 -0 -2.049616 -14.05569 -0.9801716 0.8625423 -22.80214 -3.004051 -0 39.29016 -0 -6.634849 -6.372678 18.0964 -2.235598 -2.941467 4.902845 0.03318838 10.82907 -4.456981 2.639607 23.84825 4.810656 2.845612 -18.67851 8.384697 7.329624 -17.59131 10.27751 82.09479 36.25961 -12.34388 -0 0 13.11912 -14.37398 12.62943 7.238785 6.336865 -18.53509 -2.257345 -92.86847 19.55827 19.13126 0 0 -4.270183 14.47536 18.60822 -3.477211
